# AST/ASF file generated using VICON BodyLanguage
# -----------------------------------------------
:version 1.10
:name VICON
:units
  mass 1.0
  length 0.45
  angle deg
:documentation
   .ast/.asf automatically generated from VICON data using
   VICON BodyBuilder and BodyLanguage model FoxedUp or BRILLIANT.MOD
:root
   order TX TY TZ RX RY RZ
   axis XYZ
   position 0 0 0  
   orientation 0 -0 0 
:bonedata
  begin
     id 1 
     name lhipjoint
     direction 0.515797 -0.759363 0.396637 
     length 2.47888 
     axis 0 -0 0  XYZ
  end
  begin
     id 2 
     name lfemur
     direction 0.34202 -0.939693 0  
     length 6.81885  
     axis 0 -0 20  XYZ
    dof rx ry rz
    limits (-160.0 20.0)
           (-70.0 70.0)
           (-60.0 70.0)
  end
  begin
     id 3 
     name ltibia
     direction 0.342037 -0.939687 0   
     length 7.89258   
     axis 0 -0 20   XYZ
    dof rx
    limits (-10.0 170.0)
  end
  begin
     id 4 
     name lfoot
     direction 0.173497 -0.476678 0.861787   
     length 2.51543   
     axis -90 -1.13533e-015 20   XYZ
    dof rx rz
    limits (-45.0 90.0)
           (-70.0 20.0)
  end
  begin
     id 5 
     name ltoes
     direction 1.53564e-011 -4.21897e-011 1   
     length 1.21388   
     axis -90 -1.13533e-015 20   XYZ
    dof rx
    limits (-90.0 20.0)
  end
  begin
     id 6 
     name rhipjoint
     direction -0.489454 -0.772941 0.403729   
     length 2.43534  
     axis 0 -0 0  XYZ 
  end
  begin
     id 7 
     name rfemur
     direction -0.34202 -0.939693 0   
     length 7.10357   
     axis 0 -0 -20   XYZ
    dof rx ry rz
    limits (-160.0 20.0)
           (-70.0 70.0)
           (-70.0 60.0)
  end
  begin
     id 8 
     name rtibia
     direction -0.34202 -0.939693 0   
     length 9.16127   
     axis 0 -0 -20   XYZ
    dof rx
    limits (-10.0 170.0)
 end
 begin
     id 9 
     name rfoot
     direction -0.270974 -0.748671 0.605033   
     length 1.74894  
     axis -90 1.13533e-015 -20   XYZ
    dof rx rz
    limits (-45.0 90.0)
           (-20.0 70.0)
  end
  begin
     id 10 
     name rtoes
     direction -1.53557e-011 -4.21759e-011 1   
     length 0.787585   
     axis -90 1.13533e-015 -20   XYZ
    dof rx
    limits (-90.0 20.0)
  end
  begin
     id 11 
     name lowerback
     direction -0.0140249 0.999561 0.0260968   
     length 2.16963   
     axis 0 -0 0   XYZ
    dof rx ry rz
    limits (-20.0 45.0)
           (-30.0 30.0)
           (-30.0 30.0)
  end
  begin
     id 12 
     name upperback
     direction 0.00860018 0.999959 -0.002711   
     length 2.1726   
     axis 0 -0 0   XYZ
    dof rx ry rz
    limits (-20.0 45.0)
           (-30.0 30.0)
           (-30.0 30.0)
  end
  begin
     id 13 
     name thorax
     direction 0.015211 0.999782 -0.0143191   
     length 2.17061   
     axis 0 -0 0   XYZ
    dof rx ry rz
    limits (-20.0 45.0)
           (-30.0 30.0)
           (-30.0 30.0)
  end
  begin
     id 14 
     name lowerneck
     direction -0.0140143 0.999447 0.030145   
     length 2.26749   
     axis 0 -0 0   XYZ
    dof rx ry rz
    limits (-20.0 45.0)
           (-30.0 30.0)
           (-30.0 30.0)
  end
  begin
     id 15 
     name upperneck
     direction 0.118062 0.961438 -0.248392   
     length 2.22728   
     axis 0 -0 0   XYZ
    dof rx ry rz
    limits (-20.0 45.0)
           (-30.0 30.0)
           (-30.0 30.0)
  end
  begin
     id 16
     name head
     direction 0.0431885 0.9954 -0.085514  
     length 2.28786  
     axis 0 -0 0   XYZ
    dof rx ry rz
    limits (-20.0 45.0)
           (-30.0 30.0)
           (-30.0 30.0)
  end
  begin
     id 17 
     name lclavicle
     direction 0.912126 0.409548 0.0172323  
     length 4.31571  
     axis 0 -0 0   XYZ
    dof ry rz
    limits (-20.0 10.0)
           (0.0 20.0)
  end
  begin
     id 18 
     name lhumerus
     direction 1 -4.48977e-011 1.93091e-027   
     length 5.13658   
     axis 180 -30 -90   XYZ
    dof rx ry rz
    limits (-60.0 90.0)
           (-90.0 90.0)
           (-90.0 90.0)
  end
  begin
     id 19
     name lradius
     direction 1 -4.48916e-011 6.84018e-027   
     length 3.22473   
     axis 180 -30 -90   XYZ
    dof rx
    limits (-10.0 170.0)
  end
  begin
     id 20
     name lwrist
     direction 1 -4.48987e-011 7.01981e-027   
     length 1.61236   
     axis -4.37994e-015 90 90   XYZ
    dof ry
    limits (-180.0 0.0)
 end
  begin
     id 21 
     name lhand
     direction 1 -4.49037e-011 1.40335e-026   
     length 0.936406   
     axis -8.96029e-015 90 90   XYZ
    dof rx rz
    limits (-90.0 90.0)
           (-45.0 45.0)
  end
  begin
     id 22 
     name lfingers
     direction 1 -4.48886e-011 2.8104e-026   
     length 0.754955   
     axis -1.79203e-014 90 90   XYZ
    dof rx
    limits (0.0 90.0)
  end
  begin
     id 23
     name lthumb
     direction 0.707107 -6.34937e-011 0.707107   
     length 1.08397   
     axis -90 45 -4.48555e-014   XYZ
    dof rx rz
    limits (-45.0 45.0)
           (-45.0 45.0)
  end
  begin
     id 24 
     name rclavicle
     direction -0.947962 0.317997 0.0156638   
     length 4.86918  
     axis 0 -0 0   XYZ 
    dof ry rz
    limits (-10.0 20.0)
           (-20.0 0.0)
  end
  begin
     id 25 
     name rhumerus
     direction -1 -4.48951e-011 2.80534e-018  
     length 5.60911   
     axis 180 30 90   XYZ
    dof rx ry rz
    limits (-90.0 60.0)
           (-90.0 90.0)
           (-90.0 90.0)
  end
  begin
     id 26 
     name rradius
     direction -1 -4.4898e-011 2.11315e-027   
     length 3.38704   
     axis 180 30 90   XYZ
    dof rx
    limits (-10.0 170.0)
  end
  begin
     id 27 
     name rwrist
     direction -1 -4.48933e-011 7.02314e-027   
     length 1.69352   
     axis -4.37994e-015 -90 -90   XYZ
    dof ry
    limits (-180.0 0.0)
  end
  begin
     id 28
     name rhand
     direction -1 -4.48937e-011 1.40458e-026   
     length 0.755878   
     axis -8.96029e-015 -90 -90   XYZ
    dof rx rz
    limits (-90.0 90.0)
           (-45.0 45.0)
  end
  begin
     id 29
     name rfingers
     direction -1 -4.4901e-011 2.80737e-026   
     length 0.609409   
     axis -1.79203e-014 -90 -90   XYZ
    dof rx
    limits (0.0 90.0)
  end
  begin
     id 30
     name rthumb
     direction -0.707107 -6.34968e-011 0.707107   
     length 0.874992   
     axis -90 -45 4.48555e-014   XYZ
    dof rx rz
    limits (-45.0 45.0)
           (-45.0 45.0)
  end
:hierarchy
  begin
    root lhipjoint rhipjoint lowerback
    lhipjoint lfemur
    lfemur ltibia
    ltibia lfoot
    lfoot ltoes
    rhipjoint rfemur
    rfemur rtibia
    rtibia rfoot
    rfoot rtoes
    lowerback upperback
    upperback thorax
    thorax lowerneck lclavicle rclavicle
    lowerneck upperneck
    upperneck head
    lclavicle lhumerus
    lhumerus lradius
    lradius lwrist
    lwrist lhand lthumb
    lhand lfingers
    rclavicle rhumerus
    rhumerus rradius
    rradius rwrist
    rwrist rhand rthumb
    rhand rfingers
  end

#!OML:ASF C:\ViconDB\ViconDB\414\Spring2016\041811\Spring2016.ASF
:FULLY-SPECIFIED
:DEGREES
105
root 12.8895 18.1204 11.8877 -178.178 -5.95542 -178.196
lowerback -3.22716 0.937899 -1.97527
upperback 0.661498 1.31965 0.528296
thorax 2.43159 0.626052 1.71927
lowerneck -13.6311 2.75173 -3.95739
upperneck 25.2628 0.441369 11.5178
head 10.2248 0.635137 4.76194
rclavicle -2.15433e-014 -6.36111e-015
rhumerus -48.0313 -23.2579 -71.4495
rradius 38.9566
rwrist 39.6268
rhand -33.0149 -13.2253
rfingers 7.12502
rthumb -6.22859 -43.1138
lclavicle -2.15433e-014 -6.36111e-015
lhumerus -40.1124 1.87351 79.0065
lradius 29.4425
lwrist -30.8124
lhand -32.9373 17.5523
lfingers 7.12502
lthumb -6.15367 47.4429
rfemur 166.285 51.8237 -170.035
rtibia 28.9497
rfoot -58.2362 -44.9335
rtoes -6.2816e-014
lfemur -7.57684 -10.9193 -13.2427
ltibia 26.0217
lfoot -22.807 3.62939
ltoes 2.01766e-014
106
root 12.891 18.1182 11.8759 -178.186 -5.973 -178.191
lowerback -3.25713 0.945605 -1.95761
upperback 0.562397 1.32921 0.514646
thorax 2.34676 0.632955 1.69515
lowerneck -13.4883 2.77403 -3.9063
upperneck 25.348 0.425542 11.5243
head 10.2294 0.621504 4.75235
rclavicle 2.12327e-014 1.53064e-014
rhumerus -48.2221 -23.1115 -71.5426
rradius 38.9267
rwrist 39.1441
rhand -33.247 -13.4619
rfingers 7.12502
rthumb -6.45264 -43.3436
lclavicle 2.12327e-014 1.53064e-014
lhumerus -40.1488 1.59597 79.3248
lradius 29.3415
lwrist -29.8597
lhand -33.0342 17.7057
lfingers 7.12502
lthumb -6.24721 47.5936
rfemur 166.194 51.9224 -170.076
rtibia 28.9732
rfoot -58.2876 -44.917
rtoes 3.33958e-014
lfemur -7.45318 -10.9349 -13.2412
ltibia 25.9664
lfoot -22.8544 3.62479
ltoes 4.27387e-015
107
root 12.8947 18.1179 11.8653 -178.259 -5.99411 -178.202
lowerback -3.27625 0.936089 -2.0093
upperback 0.548002 1.31855 0.528821
thorax 2.34171 0.626999 1.73838
lowerneck -13.3933 2.78987 -3.88566
upperneck 25.3566 0.439326 11.5042
head 10.2127 0.62241 4.74048
rclavicle -1.8692e-014 -5.36719e-015
rhumerus -48.3301 -23.2909 -71.4283
rradius 38.8567
rwrist 39.2669
rhand -33.2246 -13.4293
rfingers 7.12502
rthumb -6.43106 -43.3117
lclavicle -1.8692e-014 -5.36719e-015
lhumerus -40.0809 2.20136 79.1081
lradius 29.1757
lwrist -30.9636
lhand -32.2887 17.4135
lfingers 7.12502
lthumb -5.52749 47.3214
rfemur 166.004 51.8706 -170.218
rtibia 28.9824
rfoot -58.2344 -44.8728
rtoes 4.53229e-014
lfemur -7.31985 -11.0341 -13.255
ltibia 25.9411
lfoot -22.9036 3.64444
ltoes 1.94809e-014
108
root 12.8958 18.1188 11.8528 -178.297 -6.03551 -178.207
lowerback -3.36396 0.902405 -2.02997
upperback 0.537753 1.27588 0.538254
thorax 2.38169 0.60491 1.75916
lowerneck -13.3037 2.80083 -3.74223
upperneck 25.3633 0.460261 11.3344
head 10.1986 0.623597 4.6537
rclavicle -2.73267e-014 6.36111e-015
rhumerus -48.3969 -23.3377 -71.4082
rradius 38.8101
rwrist 39.2643
rhand -32.9732 -13.3551
rfingers 7.12502
rthumb -6.18835 -43.2447
lclavicle -2.73267e-014 6.36111e-015
lhumerus -39.9397 1.91774 79.4053
lradius 28.9197
lwrist -30.6135
lhand -31.9243 17.3398
lfingers 7.12502
lthumb -5.17562 47.2566
rfemur 165.865 52.0993 -170.319
rtibia 29.0115
rfoot -58.5969 -44.628
rtoes 2.62396e-014
lfemur -7.21142 -11.0866 -13.2643
ltibia 25.9052
lfoot -22.9447 3.64288
ltoes 3.19049e-014
109
root 12.8893 18.1177 11.8353 -178.231 -6.08051 -178.129
lowerback -3.6413 0.882008 -1.86
upperback 0.507192 1.24595 0.538383
thorax 2.5109 0.590809 1.66747
lowerneck -13.2978 2.83497 -3.74944
upperneck 25.4821 0.467232 11.3901
head 10.2392 0.626298 4.68027
rclavicle -6.73383e-015 -1.39149e-015
rhumerus -48.4805 -23.4108 -71.4114
rradius 38.7451
rwrist 39.2536
rhand -33.0667 -13.422
rfingers 7.12502
rthumb -6.27856 -43.3089
lclavicle -6.73383e-015 -1.39149e-015
lhumerus -39.8099 1.96069 79.5882
lradius 28.6236
lwrist -30.5026
lhand -31.6841 17.2294
lfingers 7.12502
lthumb -4.94375 47.1518
rfemur 165.872 52.8359 -170.227
rtibia 29.0311
rfoot -59.4755 -44.524
rtoes -8.66701e-014
lfemur -7.20063 -11.1311 -13.2067
ltibia 25.8853
lfoot -22.9976 3.66664
ltoes 2.51463e-014
110
root 12.8859 18.1133 11.8208 -178.25 -6.07807 -178.191
lowerback -3.78711 0.88726 -1.87871
upperback 0.499536 1.25691 0.51582
thorax 2.5846 0.595278 1.65817
lowerneck -13.1606 2.83825 -3.64626
upperneck 25.4507 0.468117 11.2963
head 10.2027 0.620718 4.6229
rclavicle 3.03768e-014 0
rhumerus -48.566 -23.4829 -71.4279
rradius 38.6143
rwrist 39.6327
rhand -33.3255 -13.6959
rfingers 7.12502
rthumb -6.52846 -43.5753
lclavicle 3.03768e-014 0
lhumerus -39.6836 1.90688 79.8275
lradius 28.3553
lwrist -30.1866
lhand -31.4404 17.0128
lfingers 7.12502
lthumb -4.70835 46.9404
rfemur 165.706 53.2021 -170.41
rtibia 29.0524
rfoot -59.8276 -44.64
rtoes -4.92986e-014
lfemur -7.07963 -11.2271 -13.3192
ltibia 25.871
lfoot -23.0944 3.76322
ltoes -1.82882e-014
111
root 12.8867 18.1115 11.8087 -178.32 -6.11429 -178.176
lowerback -3.86573 0.856339 -1.89677
upperback 0.52232 1.217 0.558603
thorax 2.65267 0.573781 1.71181
lowerneck -13.1699 2.84932 -3.68496
upperneck 25.5137 0.488828 11.2788
head 10.2248 0.623598 4.62849
rclavicle 5.19325e-015 -3.77691e-015
rhumerus -48.5422 -23.3916 -71.509
rradius 38.591
rwrist 39.2501
rhand -33.1479 -13.4036
rfingers 7.12502
rthumb -6.35701 -43.2882
lclavicle 5.19325e-015 -3.77691e-015
lhumerus -39.5311 1.8922 80.1438
lradius 28.099
lwrist -29.9997
lhand -30.9658 16.8096
lfingers 7.12502
lthumb -4.25016 46.7469
rfemur 165.503 53.3434 -170.535
rtibia 29.0638
rfoot -59.9593 -44.5854
rtoes -5.88403e-014
lfemur -6.95631 -11.2977 -13.319
ltibia 25.8661
lfoot -23.1575 3.7866
ltoes 3.60794e-014
112
root 12.8855 18.1149 11.7963 -178.35 -6.15811 -178.168
lowerback -3.96571 0.844506 -1.87037
upperback 0.510442 1.20176 0.549871
thorax 2.69799 0.56611 1.68889
lowerneck -13.2111 2.8525 -3.75661
upperneck 25.6521 0.452366 11.383
head 10.2847 0.606389 4.68111
rclavicle -6.52262e-015 0
rhumerus -48.6068 -23.4344 -71.5611
rradius 38.5091
rwrist 39.2554
rhand -33.11 -13.4113
rfingers 7.12502
rthumb -6.32044 -43.297
lclavicle -6.52262e-015 0
lhumerus -39.3819 2.06282 80.2604
lradius 27.832
lwrist -30.3553
lhand -30.4416 16.8433
lfingers 7.12502
lthumb -3.74386 46.7902
rfemur 165.385 53.5608 -170.631
rtibia 29.0692
rfoot -60.3124 -44.2981
rtoes 2.70347e-014
lfemur -6.83648 -11.3052 -13.3239
ltibia 25.853
lfoot -23.2297 3.75889
ltoes 7.25564e-015
